<svg width="100" height="100" xmlns="http://www.w3.org/2000/svg"><g fill="none" fill-rule="evenodd"><path d="M25.601 34.26a.236.236 0 0 1-.067-.449L60.532 22.18a3.133 3.133 0 0 1 3.896 2.987v10.318L25.601 34.26Z" stroke="#231F20" fill="#F2685B"/><path d="m29.374 35.9 36.525-8.556a3.11 3.11 0 0 1 3.75 3.121V40.65L29.374 35.9Z" stroke="#231F20" fill="#F2685B"/><path d="M66.202 77.444H27.41a9.33 9.33 0 0 1-9.24-9.376V43.03a9.33 9.33 0 0 1 9.24-9.375h38.793a9.33 9.33 0 0 1 9.23 9.375v25.04a9.33 9.33 0 0 1-9.23 9.375Z"/><path d="M66.202 77.444H27.41a9.33 9.33 0 0 1-9.24-9.376V43.03a9.33 9.33 0 0 1 9.24-9.375h38.793a9.33 9.33 0 0 1 9.23 9.375v25.04a9.33 9.33 0 0 1-9.23 9.375Z" stroke="#231F20" fill="#FFF2E3" fill-rule="nonzero"/><path d="M65.82 77.017H27.79a9.162 9.162 0 0 1-9.06-9.196V43.276a9.151 9.151 0 0 1 9.06-9.184h38.03a9.151 9.151 0 0 1 9.05 9.184v24.545a9.151 9.151 0 0 1-9.05 9.196Z" fill="#F2685B" opacity=".5"/><path d="M71.592 36.102a9.656 9.656 0 0 1 3.244 7.22v24.151a9.297 9.297 0 0 1-8.982 9.454H27.308a8.825 8.825 0 0 1-6.883-3.368" fill="#FFF2E3"/><path d="M76.105 62.106h-5.232a5.423 5.423 0 0 1-5.378-5.434v-.685a5.412 5.412 0 0 1 5.378-5.423h5.232a5.412 5.412 0 0 1 5.379 5.423v.685a5.423 5.423 0 0 1-5.379 5.434Z"/><path d="M76.105 62.106h-5.232a5.423 5.423 0 0 1-5.378-5.434v-.685a5.412 5.412 0 0 1 5.378-5.423h5.232a5.412 5.412 0 0 1 5.379 5.423v.685a5.423 5.423 0 0 1-5.379 5.434Z" stroke="#000001" fill="#F1695C" fill-rule="nonzero"/><circle cx="50" cy="50" r="50"/></g></svg>